# xmcd
#
# Track frame offsets: 
#        150
#        19266
#        36085
#        48529
#        69316
#        87523
#        110655
#        125698
#        146158
#        165684
#        186642
#
# Disc length: 2827 seconds
#
# Revision: 0
# Processed by: cddbd v1.5.2PL0 Copyright (c) Steve Scherf et al.
# Submitted via: ExactAudioCopy v0.99pb1
#
DISCID=a70b090b
DTITLE=Henrt Hedman - Uusi huominen
DYEAR=2008
DGENRE=Gospel
TTITLE0=Voittaja
TTITLE1=Niin kuin kukka
TTITLE2=Olin murheellinen
TTITLE3=Armovirsi
TTITLE4=Herra paimenena mulla on
TTITLE5=Ylistyssikermä
TTITLE6=Hän
TTITLE7=Luotujen ylistys
TTITLE8=Aamujen aamu
TTITLE9=Tuonne, tuonne kaipaan
TTITLE10=Pyhä Kaupunki
EXTD=
EXTT0=
EXTT1=
EXTT2=
EXTT3=
EXTT4=
EXTT5=
EXTT6=
EXTT7=
EXTT8=
EXTT9=
EXTT10=
PLAYORDER=
